<svg width="12" height="12" viewBox="0 0 12 12" fill="none" xmlns="http://www.w3.org/2000/svg">
<path d="M0.583578 8.3894C0.185 8.61951 0.0484378 9.12917 0.278556 9.52775C0.508675 9.92633 1.01833 10.0629 1.41691 9.83277L0.583578 8.3894ZM11.4277 3.77121C11.5468 3.32666 11.283 2.86971 10.8384 2.75059L3.59399 0.809448C3.14943 0.69033 2.69249 0.954149 2.57337 1.3987C2.45425 1.84326 2.71807 2.30021 3.16262 2.41932L9.60213 4.14478L7.87667 10.5843C7.75755 11.0288 8.02137 11.4858 8.46592 11.6049C8.91048 11.724 9.36743 11.4602 9.48654 11.0157L11.4277 3.77121ZM1.41691 9.83277L11.0394 4.27722L10.2061 2.83384L0.583578 8.3894L1.41691 9.83277Z" fill="#B9FF66"/>
</svg>
